<svg width="18" height="18" viewBox="0 0 18 18" fill="none" xmlns="http://www.w3.org/2000/svg">
<path d="M12.751 7.49992H12.6008V5.99992C12.5999 5.28965 12.3892 4.59549 11.9951 4.00461C11.6009 3.41372 11.041 2.95246 10.3856 2.67875L10.3787 2.67399C10.2644 2.63285 10.1481 2.59752 10.0302 2.56816C9.92474 2.53639 9.82385 2.49436 9.71454 2.47221C8.89626 2.30621 8.04571 2.43002 7.30871 2.82241C6.57171 3.21481 5.99415 3.85135 5.67505 4.62292C5.61503 4.76982 5.61565 4.93452 5.67677 5.08097C5.7379 5.22742 5.85456 5.34368 6.00121 5.40432C6.14786 5.46496 6.31256 5.46503 6.45926 5.40452C6.60597 5.34401 6.72272 5.22785 6.78398 5.08145C6.96621 4.64326 7.27388 4.26869 7.66832 4.00481C8.06277 3.74093 8.5264 3.5995 9.00098 3.5983V3.5998C9.16068 3.59997 9.31997 3.61607 9.47648 3.64786C9.57074 3.67059 9.66355 3.69893 9.75443 3.73273C10.2322 3.88993 10.6483 4.19351 10.9439 4.60044C11.2394 5.00736 11.3994 5.49699 11.4011 5.99992V7.49992H5.25098C4.85351 7.50107 4.47265 7.65948 4.19159 7.94053C3.91054 8.22159 3.75213 8.60245 3.75098 8.99992V14.9999C3.75213 15.3974 3.91054 15.7782 4.19159 16.0593C4.47265 16.3404 4.85351 16.4988 5.25098 16.4999H12.751C13.1484 16.4988 13.5293 16.3404 13.8104 16.0593C14.0914 15.7782 14.2498 15.3974 14.251 14.9999V8.99992C14.2498 8.60245 14.0914 8.22159 13.8104 7.94053C13.5293 7.65948 13.1484 7.50107 12.751 7.49992ZM13.0509 14.9999C13.0499 15.0791 13.0179 15.1548 12.9619 15.2109C12.9059 15.2669 12.8302 15.2989 12.751 15.2999H5.25098C5.17175 15.2989 5.09606 15.2669 5.04004 15.2109C4.98402 15.1548 4.95209 15.0791 4.95105 14.9999V8.99992C4.95208 8.92069 4.98401 8.84499 5.04004 8.78895C5.09606 8.73292 5.17175 8.70097 5.25098 8.69992H12.751C12.8302 8.70097 12.9059 8.73292 12.9619 8.78895C13.0179 8.84499 13.0499 8.92069 13.0509 8.99992V14.9999Z" fill="#767676"/>
<path d="M9.37402 10.875H8.62402C8.20981 10.875 7.87402 11.2108 7.87402 11.625V12.375C7.87402 12.7892 8.20981 13.125 8.62402 13.125H9.37402C9.78824 13.125 10.124 12.7892 10.124 12.375V11.625C10.124 11.2108 9.78824 10.875 9.37402 10.875Z" fill="#767676"/>
</svg>
