<svg width="18" height="18" viewBox="0 0 18 18" fill="none" xmlns="http://www.w3.org/2000/svg">
<path d="M11.2349 8.79845C12.0959 8.11595 12.5992 7.0757 12.5992 5.97695C12.5992 4.0022 10.9739 2.37695 8.99844 2.37695C7.02369 2.37695 5.39844 4.0022 5.39844 5.97695C5.39844 7.0757 5.90169 8.11595 6.76269 8.79845C4.15419 9.73895 2.40369 12.2275 2.39844 15.0002C2.39844 15.3295 2.66919 15.6002 2.99844 15.6002C3.32769 15.6002 3.59844 15.3295 3.59844 15.0002C3.59844 12.0377 6.03594 9.6002 8.99844 9.6002C11.9609 9.6002 14.3984 12.0377 14.3984 15.0002C14.3984 15.3295 14.6692 15.6002 14.9984 15.6002C15.3277 15.6002 15.5984 15.3295 15.5984 15.0002C15.5939 12.2275 13.8434 9.7397 11.2349 8.79845ZM6.59844 6.0002C6.59844 4.68395 7.68219 3.6002 8.99844 3.6002C10.3147 3.6002 11.3984 4.68395 11.3984 6.0002C11.3984 7.31645 10.3147 8.4002 8.99844 8.4002C7.68219 8.4002 6.59844 7.31645 6.59844 6.0002Z" fill="#767676"/>
</svg>
